<svg xmlns:xlink="http://www.w3.org/1999/xlink" version="1.1" id="Calque_1"
     xmlns="http://www.w3.org/2000/svg" x="0px" y="0px" viewBox="0 0 560 90"
     style="enable-background:new 0 0 560 90;    fill: #fff;" xml:space="preserve">
<g>
    <path d="M103.2,10h4.3l48.6,59.3l0-59.3h5l0,68h-4.3l-48.6-59.2l0.1,37L103.1,45L103.2,10z"></path>
    <path d="M184.9,73.5c-5.1-3.1-9.2-7.2-12.2-12.4c-3-5.2-4.5-10.9-4.5-17.1c0-6.1,1.5-11.8,4.5-17c3-5.2,7-9.3,12.2-12.4
		c5.1-3.1,10.7-4.6,16.7-4.6c4.9,0,9.8,1.3,14.5,3.8c4.7,2.5,9,6,12.7,10.4H222c-2.7-2.8-5.8-4.9-9.3-6.5c-3.5-1.5-7.2-2.3-11-2.3
		c-5.1,0-9.8,1.3-14.1,3.9c-4.3,2.6-7.7,6-10.3,10.4c-2.5,4.4-3.8,9.2-3.8,14.4c0,5.2,1.3,10,3.8,14.4c2.5,4.4,5.9,7.9,10.3,10.5
		c4.3,2.6,9,3.9,14.1,3.9c3.8,0,7.5-0.8,11.1-2.4c3.5-1.6,6.7-3.8,9.4-6.6h6.8c-3.7,4.5-7.9,8-12.7,10.5c-4.8,2.6-9.7,3.8-14.7,3.8
		C195.6,78.1,190.1,76.5,184.9,73.5z"></path>
    <path d="M236.3,10l47.3,0v5.1h-42.3v24.6l42.3,0v5.1h-42.3V73h42.3v5.1h-47.4L236.3,10z"></path>
    <path d="M290.8,10h5V73h42.3v5.1h-47.4L290.8,10z"></path>
    <path
        d="M380.9,8.4l35.5,69.6h-5.5l-11.7-23.1h-36.5l-11.9,23.1h-5.4L380.9,8.4z M380.9,19.1l-15.6,30.5l31.1,0L380.9,19.1z"></path>
    <path d="M419.1,10.1l21.8,0c6,0,11.6,1.5,16.7,4.6c5.1,3.1,9.1,7.2,12.1,12.4c3,5.2,4.5,10.9,4.5,17c0,6.2-1.5,11.9-4.5,17.1
		c-3,5.2-7,9.3-12.1,12.4c-5.1,3-10.6,4.6-16.6,4.6H419L419.1,10.1z M440.9,73c5.1,0,9.9-1.3,14.2-3.9c4.3-2.6,7.8-6.1,10.3-10.5
		c2.5-4.4,3.8-9.3,3.8-14.5s-1.3-10.1-3.8-14.5c-2.5-4.4-6-7.9-10.3-10.5c-4.3-2.6-9.1-3.9-14.2-3.9h-16.8V73H440.9z"></path>
</g>
    <g>
                                    <polygon
                                        points="108.3,55.8 86.3,10 80.2,23 80.2,23 53.9,78.1 66.1,78 86.3,35.7 96,55.8 	"></polygon>
        <polygon points="112.7,65 100.5,65 106.8,78.1 118.9,78 	"></polygon>
                                </g>
    <g>
                                    <path d="M471.9,22.9h34.2V10.1h-48.8C463.2,13.5,468.1,17.8,471.9,22.9z"></path>
        <path
            d="M478.9,50.5h27.2V37.6h-27.5c0.5,2.4,0.8,4.8,0.8,7.3C479.4,46.8,479.2,48.6,478.9,50.5z"></path>
        <path d="M460.1,78h46V65.2h-33C469.8,70.1,465.4,74.5,460.1,78z"></path>
                                </g>
</svg>
